<svg width="297" height="406" viewBox="0 0 297 406" fill="none" xmlns="http://www.w3.org/2000/svg">
<rect width="297" height="406" fill="#E5E5E5"/>
<rect width="297" height="406" fill="white"/>
<path d="M259 244.968C259 306.248 209.527 336.01 148.5 336.01C87.4725 336.01 38 306.248 38 244.968C38 183.688 87.4725 134.01 148.5 134.01C209.527 134.01 259 183.688 259 244.968Z" fill="#1B1717"/>
<circle cx="148.5" cy="102.51" r="66.5" fill="#1B1717"/>
<path d="M100.241 19.3217L135.678 41.0888L104.43 60.6985L100.241 19.3217Z" fill="#1B1717"/>
<path d="M196.024 17.4888L195.933 59.077L162.904 42.642L196.024 17.4888Z" fill="#1B1717"/>
<path d="M110.139 281.911C110.432 242.378 146.413 317.914 185.644 318.205C224.874 318.496 256.44 350.78 256.146 390.313C255.853 429.846 224.636 350.614 185.405 350.323C146.175 350.032 109.846 321.444 110.139 281.911Z" fill="#1B1718"/>
<circle cx="174.056" cy="96.6993" r="18.9925" transform="rotate(-0.758023 174.056 96.6993)" fill="white"/>
<circle cx="183" cy="106.01" r="3" fill="#1B1718"/>
<circle cx="123.542" cy="96.6993" r="18.9925" transform="rotate(-0.758023 123.542 96.6993)" fill="white"/>
<circle cx="133" cy="106.01" r="3" fill="#1B1718"/>
</svg>
