<svg width="828" height="565" viewBox="0 0 828 565" fill="none" xmlns="http://www.w3.org/2000/svg">
<rect width="828" height="565" fill="#E5E5E5"/>
<rect width="828" height="565" fill="white"/>
<path d="M489 291.155C489 310.57 473.33 320 454 320C434.67 320 419 310.57 419 291.155C419 271.739 434.67 256 454 256C473.33 256 489 271.739 489 291.155Z" fill="#1B1717"/>
<circle cx="454" cy="246" r="21" fill="#1B1717"/>
<path d="M438.714 219.586L449.939 226.481L440.041 232.692L438.714 219.586Z" fill="#1B1717"/>
<path d="M469.053 219.005L469.024 232.178L458.562 226.973L469.053 219.005Z" fill="#1B1717"/>
<path d="M445.641 336.504C433.154 335.565 457.795 325.812 458.727 313.42C459.659 301.029 470.537 291.745 483.024 292.684C495.51 293.623 469.803 301.792 468.872 314.183C467.94 326.575 458.128 337.443 445.641 336.504Z" fill="#1B1718"/>
<circle cx="462.095" cy="244.095" r="6.01572" transform="rotate(-0.758023 462.095 244.095)" fill="white"/>
<circle cx="465" cy="247" r="1" fill="#1B1718"/>
<circle cx="446.095" cy="244.095" r="6.01572" transform="rotate(-0.758023 446.095 244.095)" fill="white"/>
<circle cx="449" cy="247" r="1" fill="#1B1718"/>
</svg>
