<svg width="297" height="406" viewBox="0 0 297 406" fill="none" xmlns="http://www.w3.org/2000/svg">
<rect width="297" height="406" fill="#E5E5E5"/>
<rect width="297" height="406" fill="white"/>
<path d="M259 244.968C259 306.248 209.527 336.01 148.5 336.01C87.4725 336.01 38 306.248 38 244.968C38 183.688 87.4725 134.01 148.5 134.01C209.527 134.01 259 183.688 259 244.968Z" fill="#1B1717"/>
<circle cx="148.5" cy="102.51" r="66.5" fill="#1B1717"/>
<path d="M100.241 19.3217L135.678 41.0888L104.43 60.6985L100.241 19.3217Z" fill="#1B1717"/>
<path d="M196.024 17.4888L195.933 59.077L162.904 42.642L196.024 17.4888Z" fill="#1B1717"/>
<path d="M110.139 281.911C110.432 242.378 146.413 317.914 185.644 318.205C224.874 318.496 256.44 350.78 256.146 390.313C255.853 429.846 224.636 350.614 185.405 350.323C146.175 350.032 109.846 321.444 110.139 281.911Z" fill="#1B1718"/>
<circle cx="174.056" cy="96.6993" r="18.9925" transform="rotate(-0.758023 174.056 96.6993)" fill="white"/>
<circle cx="183" cy="106.01" r="3" fill="#1B1718"/>
<circle cx="123.542" cy="96.6993" r="18.9925" transform="rotate(-0.758023 123.542 96.6993)" fill="white"/>
<circle cx="133" cy="106.01" r="3" fill="#1B1718"/>
<path d="M102.518 212.029C102.518 214.502 102.125 216.635 101.34 218.428C100.555 220.209 99.4531 221.604 98.0352 222.611L102.605 226.197L100.303 228.324L94.9062 224.035C94.0625 224.246 93.1719 224.352 92.2344 224.352C90.2188 224.352 88.4316 223.859 86.873 222.875C85.3145 221.879 84.1016 220.467 83.2344 218.639C82.3789 216.799 81.9395 214.672 81.916 212.258V210.412C81.916 207.951 82.3438 205.777 83.1992 203.891C84.0547 202.004 85.2617 200.562 86.8203 199.566C88.3906 198.559 90.1836 198.055 92.1992 198.055C94.2617 198.055 96.0723 198.553 97.6309 199.549C99.2012 200.545 100.408 201.98 101.252 203.855C102.096 205.719 102.518 207.898 102.518 210.395V212.029ZM99.1426 210.377C99.1426 207.365 98.5391 205.045 97.332 203.416C96.1367 201.775 94.4258 200.955 92.1992 200.955C90.0781 200.955 88.4023 201.77 87.1719 203.398C85.9531 205.016 85.3262 207.266 85.291 210.148V212.029C85.291 214.959 85.9004 217.268 87.1191 218.955C88.3496 220.643 90.0547 221.486 92.2344 221.486C94.4141 221.486 96.1016 220.695 97.2969 219.113C98.4922 217.52 99.1074 215.24 99.1426 212.275V210.377ZM122.188 212.17H111.096V221.24H123.98V224H107.721V198.406H123.805V201.184H111.096V209.41H122.188V212.17ZM128.182 224V198.406H135.406C137.633 198.406 139.602 198.898 141.312 199.883C143.023 200.867 144.342 202.268 145.268 204.084C146.205 205.9 146.68 207.986 146.691 210.342V211.977C146.691 214.391 146.223 216.506 145.285 218.322C144.359 220.139 143.029 221.533 141.295 222.506C139.572 223.479 137.562 223.977 135.266 224H128.182ZM131.557 201.184V221.24H135.107C137.709 221.24 139.73 220.432 141.172 218.814C142.625 217.197 143.352 214.895 143.352 211.906V210.412C143.352 207.506 142.666 205.25 141.295 203.645C139.936 202.027 138.002 201.207 135.494 201.184H131.557Z" fill="white"/>
</svg>
